<svg xmlns="http://www.w3.org/2000/svg" viewBox="0 0 619.65 349.4"><defs><style>.cls-1{fill:none;stroke:#000;stroke-miterlimit:10;stroke-width:18px;}</style></defs><title>Asset 1</title><g id="Layer_2" data-name="Layer 2"><g id="Layer_1-2" data-name="Layer 1"><path class="cls-1" d="M610.65,181.65C609.93,269.11,532,340.37,436.72,340.4q-3.68,0-7.32-.13C396,339,365,324.33,343.68,300.68l-2.7-3a152.24,152.24,0,0,0-49.09-36.23,320.18,320.18,0,0,0-52.62-19l-87.61-4.15V120l87.61-4.51a304,304,0,0,0,52.62-20.64A153.89,153.89,0,0,0,341,55.45l2.7-3.26C365,26.48,396,10.52,429.4,9.15Q433,9,436.72,9C532,9,609.93,86.53,610.65,181.65Z"/><path class="cls-1" d="M151.66,217.2H104.74a48.51,48.51,0,0,1,.26,5A48,48,0,1,1,41,177a48,48,0,1,1,62.89-34.75h47.81Z"/><circle cx="425.82" cy="62.52" r="12.75"/><circle cx="455.57" cy="88.02" r="12.75"/><circle cx="476.57" cy="57.27" r="12.75"/></g></g></svg>